<svg width="32" height="32" viewBox="0 0 32 32" fill="none" xmlns="http://www.w3.org/2000/svg">
<path d="M1 7.92308C1 20.6677 11.3323 31 24.0769 31H27.5385C28.4565 31 29.337 30.6353 29.9861 29.9861C30.6353 29.337 31 28.4565 31 27.5385V25.4277C31 24.6338 30.46 23.9415 29.6892 23.7492L22.8846 22.0477C22.2077 21.8785 21.4969 22.1323 21.08 22.6892L19.5877 24.6785C19.1538 25.2569 18.4046 25.5123 17.7262 25.2631C15.2075 24.3371 12.9202 22.8748 11.0227 20.9773C9.12525 19.0798 7.66288 16.7925 6.73692 14.2738C6.48769 13.5954 6.74308 12.8462 7.32154 12.4123L9.31077 10.92C9.86923 10.5031 10.1215 9.79077 9.95231 9.11538L8.25077 2.31077C8.15714 1.93645 7.94111 1.60416 7.637 1.36667C7.3329 1.12919 6.95816 1.00013 6.57231 1H4.46154C3.54348 1 2.66303 1.3647 2.01386 2.01386C1.3647 2.66303 1 3.54348 1 4.46154V7.92308Z" stroke="#F1F5F9" stroke-width="2" stroke-linecap="round" stroke-linejoin="round"/>
</svg>
