<svg width="30" height="40" viewBox="0 0 30 40" fill="none" xmlns="http://www.w3.org/2000/svg">
<path d="M27.8574 17.0371C27.8574 27.4074 15.0002 36.2963 15.0002 36.2963C15.0002 36.2963 2.14307 27.4074 2.14307 17.0371C2.14307 13.5008 3.49765 10.1095 5.90884 7.60898C8.32002 5.10849 11.5903 3.70374 15.0002 3.70374C18.4101 3.70374 21.6804 5.10849 24.0916 7.60898C26.5028 10.1095 27.8574 13.5008 27.8574 17.0371Z" stroke="#F1F5F9" stroke-width="2" stroke-linecap="round" stroke-linejoin="round"/>
<path d="M15.0001 21.4815C17.3671 21.4815 19.2858 19.4918 19.2858 17.0371C19.2858 14.5825 17.3671 12.5927 15.0001 12.5927C12.6331 12.5927 10.7144 14.5825 10.7144 17.0371C10.7144 19.4918 12.6331 21.4815 15.0001 21.4815Z" stroke="#F1F5F9" stroke-width="2" stroke-linecap="round" stroke-linejoin="round"/>
</svg>
